<svg xmlns="http://www.w3.org/2000/svg" viewBox="0 0 505.18 151"><defs><style>.cls-1,.cls-5{fill:#231f20;}.cls-2,.cls-4{fill:#c52790;}.cls-3{fill:#c5268f;}.cls-4{stroke:#c52790;}.cls-4,.cls-5{stroke-miterlimit:10;stroke-width:0.93px;}.cls-5{stroke:#231f20;}.cls-6{fill:#010101;}</style></defs><g id="Layer_2" data-name="Layer 2"><g id="Layer_1-2" data-name="Layer 1"><g id="Layer_14" data-name="Layer 14"><path class="cls-1" d="M15.2,119.92v-54l-1.36,1.36H48.57A15.94,15.94,0,0,1,57,69.63c7.31,4.52,10.63,13.52,10.66,21.79,0,4.36,0,8.71,0,13.07v17.35c0,1.77,0,3.54-.14,5.3a27.51,27.51,0,0,1-4.62,13,18.79,18.79,0,0,1-9.39,7.35,18.76,18.76,0,0,1-6,.77H15A1.36,1.36,0,0,0,15,151H45.47c1.24,0,2.47,0,3.71,0a19.1,19.1,0,0,0,11.73-4.59c6.54-5.44,9.49-14.2,9.49-22.5V92.64c0-7.48-1.78-14.81-6.64-20.66a20.55,20.55,0,0,0-10.51-6.9,23.72,23.72,0,0,0-6-.57H13.84a1.37,1.37,0,0,0-1.36,1.36v54.05a1.36,1.36,0,0,0,2.71,0Z"/><path class="cls-2" d="M21.11,98.75l0-13.38L21,64.15V59.23l-1.35,1.34h29.3c4.07,0,8.4-.44,12.18,1.36,8.24,3.91,12.15,13.51,12.18,22.19,0,3.83,0,7.66,0,11.5v17.63c0,1.23,0,2.45,0,3.69A30.94,30.94,0,0,1,69.75,131a20.86,20.86,0,0,1-8.62,9,14,14,0,0,1-6.49,1.37H23.06a1.34,1.34,0,0,0,0,2.68H52.84A35.22,35.22,0,0,0,57.2,144,18.07,18.07,0,0,0,68,138.09c5.56-6,7.95-14.25,7.95-22.29V84.89c0-7.75-2.32-15.62-7.91-21.23a18.93,18.93,0,0,0-11-5.63,34.11,34.11,0,0,0-4.29-.13H19.64a1.35,1.35,0,0,0-1.34,1.34l.05,13.37.07,21.22,0,4.93a1.34,1.34,0,0,0,2.68,0Z"/><path class="cls-3" d="M8.85,41.59c.34-16.19,9.73-33.08,26-37.75A33.24,33.24,0,0,1,60.83,7.57,35.28,35.28,0,0,1,71,17.28a50.27,50.27,0,0,1,7,13.21,37.25,37.25,0,0,1,2.11,12V90.37c0,7.68-.13,15.38,0,23.07v.36a1.34,1.34,0,0,0,2.68,0V45.5a50.1,50.1,0,0,0-1.17-12.26,49.39,49.39,0,0,0-6.37-14.49,43.45,43.45,0,0,0-9.53-11A36.43,36.43,0,0,0,38.54.33C21.43,2.73,9.39,18.28,6.8,34.65a52,52,0,0,0-.62,6.94,1.34,1.34,0,0,0,2.68,0Z"/><path class="cls-2" d="M8.84,42.44v-.92a1.34,1.34,0,1,0-2.68,0h0v.92a1.34,1.34,0,0,0,2.68,0Z"/><path class="cls-2" d="M23.06,141.44a12.07,12.07,0,0,1-6.42-1.28,15,15,0,0,1-5.85-6.67,22.45,22.45,0,0,1-1.95-9.83V56.54c0-4.34.15-8.71,0-13V43.3a1.34,1.34,0,0,0-2.68,0v80a27.57,27.57,0,0,0,1.19,8.79c1.94,5.82,6.51,11.42,13,12,.9.08,1.82,0,2.73,0a1.34,1.34,0,0,0,0-2.68Z"/><path class="cls-1" d="M16.86,148.29a13.45,13.45,0,0,1-5.66-.79,13,13,0,0,1-5.64-5.19,21.06,21.06,0,0,1-2.86-11.1V56.37c0-6.23-.19-12.51,1.17-18.63,2.4-10.94,8.81-21.24,18.58-27A31.77,31.77,0,0,1,53,9.65c10,5.13,17,15,19.9,25.68,2.26,8.22,1.71,16.81,1.71,25.24v2.74a1.35,1.35,0,0,0,2.7,0V54a107.45,107.45,0,0,0-.26-10.92c-1.19-11.92-6.59-23.65-16-31.32a35,35,0,0,0-31.55-7c-11.07,3.11-19.93,11.7-24.75,22A50.32,50.32,0,0,0,.15,44.93C-.07,48.43,0,52,0,55.49c0,3.33,0,6.67,0,10v64.59a32.26,32.26,0,0,0,.55,6.79c1.2,5.64,4.65,11.21,10.23,13.35a16.42,16.42,0,0,0,6.07.76,1.35,1.35,0,0,0,0-2.7Z"/><path class="cls-1" d="M12.5,119.85c.08,2.36,1.58,5,4.24,5s4.16-2.59,4.23-5c.06-1.73-2.62-1.72-2.67,0,0,.87-.45,2.3-1.56,2.3s-1.54-1.43-1.56-2.3C15.12,118.13,12.44,118.12,12.5,119.85Z"/><ellipse class="cls-4" cx="19.63" cy="107.35" rx="1.43" ry="1.51"/><ellipse class="cls-5" cx="19.63" cy="115.83" rx="1.43" ry="1.51"/><ellipse class="cls-4" cx="19.63" cy="103.11" rx="1.43" ry="1.51"/><ellipse class="cls-5" cx="19.63" cy="111.59" rx="1.43" ry="1.51"/></g><path class="cls-3" d="M139.39,34.26H123.58v7.3h14.08v5.52H123.58v14h-5.84V28.46h21.65Z"/><path class="cls-3" d="M168.53,61.11h-6.36L159,52.6h-11.5l-3.09,8.51h-6.36l12.53-32.65h5.29ZM157.16,47.45l-3.88-10.52-3.83,10.52Z"/><path class="cls-3" d="M178,61.11h-5.89V28.46H178Z"/><path class="cls-3" d="M200.84,47a7.65,7.65,0,0,1,1.59,2l7.67,12.11h-6.83L196.63,50c-1-1.68-1.54-2.43-3.65-2.43h-2.34V61.11h-5.89V28.46h11.79c6.31,0,11.17,2.95,11.17,9.73A8.91,8.91,0,0,1,200.84,47Zm-4.26-12.86h-5.94V42.4h5.94c2.95,0,5.24-.79,5.24-4.21S199.44,34.12,196.58,34.12Z"/><path class="cls-6" d="M237,61.11h-9.22V28.46H237c12.72,0,15.29,4.21,15.29,16.33S249.71,61.11,237,61.11Zm8.37-24.51c-1.08-1.78-3.18-2.34-7.06-2.34h-4.63V55.31h4.63c3.92,0,6-.61,7.1-2.43.8-1.41,1-3.46,1-8.05S246.2,38,245.36,36.6Z"/><path class="cls-6" d="M283.8,61.11h-6.36l-3.13-8.51H262.8l-3.09,8.51h-6.36l12.54-32.65h5.28ZM272.43,47.45l-3.88-10.52-3.83,10.52Z"/><path class="cls-6" d="M306.2,34.26h-9.4V61.11h-5.89V34.26h-9.4v-5.8H306.2Z"/><path class="cls-6" d="M334.35,61.11H328l-3.13-8.51H313.35l-3.08,8.51h-6.36l12.53-32.65h5.28ZM323,47.45l-3.88-10.52-3.84,10.52Z"/><path class="cls-3" d="M123.77,117.22h-5.89V84.58h5.89Z"/><path class="cls-3" d="M154.22,117.22H149.4l-13-20.43v20.43h-5.89V84.58h4.87l13,20.44V84.58h5.85Z"/><path class="cls-3" d="M184.52,117.22H179.7L166.75,96.79v20.43h-5.9V84.58h4.87L178.67,105V84.58h5.85Z"/><path class="cls-3" d="M203.27,117.6c-9.82,0-13.52-8-13.52-16.7s3.7-16.69,13.52-16.69,13.52,8,13.52,16.69S213.09,117.6,203.27,117.6Zm0-27.59c-6.41,0-7.62,5.8-7.62,10.89s1.21,10.9,7.62,10.9,7.58-5.8,7.58-10.9S209.72,90,203.27,90Z"/><path class="cls-3" d="M246,84.58l-11,32.64h-5.61l-11-32.64h6.17l7.62,23.76,7.67-23.76Z"/><path class="cls-3" d="M273.74,117.22h-6.35l-3.14-8.51h-11.5l-3.09,8.51H243.3l12.53-32.64h5.29Zm-11.36-13.65L258.5,93.05l-3.84,10.52Z"/><path class="cls-3" d="M296.15,90.38h-9.41v26.84h-5.89V90.38h-9.4v-5.8h24.7Z"/><path class="cls-3" d="M306.85,117.22H301V84.58h5.89Z"/><path class="cls-3" d="M325.75,117.6c-9.83,0-13.52-8-13.52-16.7s3.69-16.69,13.52-16.69,13.51,8,13.51,16.69S335.57,117.6,325.75,117.6Zm0-27.59c-6.41,0-7.63,5.8-7.63,10.89s1.22,10.9,7.63,10.9,7.57-5.8,7.57-10.9S332.2,90,325.75,90Z"/><path class="cls-3" d="M368.16,117.22h-4.82L350.39,96.79v20.43H344.5V84.58h4.86l13,20.44V84.58h5.84Z"/><path class="cls-3" d="M386.4,117.69c-6.88,0-11.46-3.08-13.1-9.63l5.57-1.08c1,3.65,3.83,5.1,7.53,5.1,2.76,0,6.17-1.4,6.17-4.68,0-6.73-18.19-2.29-18.19-14,0-6.17,5.56-9.16,11.08-9.16,5.8,0,9.5,2.15,12,7.25l-5.1,2.33c-1.54-2.9-3.5-4.11-6.92-4.11-2.1,0-5.19.93-5.19,3.69,0,5.71,18.19,2,18.19,14C398.46,114,392.48,117.69,386.4,117.69Z"/><path class="cls-6" d="M442.09,117.22H436.2v-14H423.25v14h-5.9V84.58h5.9v13.1H436.2V84.58h5.89Z"/><path class="cls-6" d="M473,103.66c0,8.37-3.42,13.94-12.35,13.94s-12.35-5.61-12.35-13.94V84.58h5.85v18.8c0,4.54,1,8.51,6.5,8.51s6.5-3.83,6.5-8.51V84.58H473Z"/><path class="cls-6" d="M491.76,117.22H479.18V84.58H491c6.22,0,11.18,2.62,11.18,9.45a7.74,7.74,0,0,1-2.81,6.08,8.19,8.19,0,0,1,4,7.34C503.31,114.61,498.26,117.22,491.76,117.22Zm-.7-27.07h-6V98.1h6c2.85,0,5.29-.61,5.29-4S493.86,90.15,491.06,90.15Zm.7,13.14h-6.69v8.37h6.69c3,0,5.65-.52,5.65-4.16S494.75,103.29,491.76,103.29Z"/></g></g></svg>