<svg xmlns="http://www.w3.org/2000/svg" data-name="Layer 1" width="857.75287" height="601.71408" viewBox="0 0 857.75287 601.71408" xmlns:xlink="http://www.w3.org/1999/xlink"><path d="M840.43808,742.95925A48.67532,48.67532,0,0,1,801.17884,728.314c-6.59053-6.94854-11.11322-15.89234-15.48708-24.54163-1.2732-2.51693-2.58928-5.11971-3.9282-7.61425a15.53413,15.53413,0,0,1,1.61174-17.33178,15.27245,15.27245,0,0,1,16.303-5.20878l.63822.18437L806.0607,696.216c.85694-3.34324,2.69631-10.87592,3.85784-18.25612l.09758-.61814.572.25474a78.13223,78.13223,0,0,1,16.78623,10.11536,80.52866,80.52866,0,0,1,30.11215,60.64308l.0152.697Z" transform="translate(-171.12356 -149.14296)" fill="#f2f2f2"/><path d="M1027.68575,750.54971l-278.75.30733a1.19069,1.19069,0,0,1,0-2.38137l278.75-.30733a1.19068,1.19068,0,1,1,0,2.38137Z" transform="translate(-171.12356 -149.14296)" fill="#cacaca"/><path d="M288.51423,252.36426H278.099a3.75037,3.75037,0,0,0-3.75037,3.75037v0a3.75037,3.75037,0,0,1-3.75037,3.75037H235.87512a3.75037,3.75037,0,0,1-3.75037-3.75037l-.68657-3.80187.04463.05149-.04463-.05149-6.2941-8.02425a2.1845,2.1845,0,0,0-1.749-.84963H211.59124a2.22543,2.22543,0,0,0-2.22277,2.22276l-.24372,6.65112h-4.46246a7.1371,7.1371,0,0,0-7.1371,7.1371v46.48379a6.33359,6.33359,0,0,0,6.33359,6.33359h84.65545a6.33967,6.33967,0,0,0,6.33186-6.33359V258.69612A6.33186,6.33186,0,0,0,288.51423,252.36426Z" transform="translate(-171.12356 -149.14296)" fill="#f2f2f2"/><path d="M231.44161,252.14113H209.36847V245.49a2.22542,2.22542,0,0,1,2.22277-2.22276h11.80381a2.1845,2.1845,0,0,1,1.749.84963Z" transform="translate(-171.12356 -149.14296)" fill="#e6e6e6"/><path d="M242.74357,307.15232H205.88719a4.40547,4.40547,0,0,1-4.4005-4.4005V292.67223a4.40546,4.40546,0,0,1,4.4005-4.4005H250.1235a4.40547,4.40547,0,0,1,4.4005,4.4005v2.69967A11.79378,11.79378,0,0,1,242.74357,307.15232Z" transform="translate(-171.12356 -149.14296)" fill="#fff"/><path d="M216.49667,295.87488h-9.097a2.23135,2.23135,0,1,1,0-4.46269h9.097a2.23135,2.23135,0,1,1,0,4.46269Z" transform="translate(-171.12356 -149.14296)" fill="#f2f2f2"/><path d="M247.39219,302.91219H207.39966a2.23135,2.23135,0,1,1,0-4.46269h39.99253a2.23135,2.23135,0,1,1,0,4.46269Z" transform="translate(-171.12356 -149.14296)" fill="#f2f2f2"/><path d="M288.51423,398.36426H278.099a3.75037,3.75037,0,0,0-3.75037,3.75037v0a3.75037,3.75037,0,0,1-3.75037,3.75037H235.87512a3.75037,3.75037,0,0,1-3.75037-3.75037l-.68657-3.80187.04463.05149-.04463-.05149-6.2941-8.02425a2.1845,2.1845,0,0,0-1.749-.84963H211.59124a2.22543,2.22543,0,0,0-2.22277,2.22276l-.24372,6.65112h-4.46246a7.1371,7.1371,0,0,0-7.1371,7.1371v46.48379a6.33359,6.33359,0,0,0,6.33359,6.33359h84.65545a6.33967,6.33967,0,0,0,6.33186-6.33359V404.69612A6.33186,6.33186,0,0,0,288.51423,398.36426Z" transform="translate(-171.12356 -149.14296)" fill="#f2f2f2"/><path d="M231.44161,398.14113H209.36847V391.49a2.22542,2.22542,0,0,1,2.22277-2.22276h11.80381a2.1845,2.1845,0,0,1,1.749.84963Z" transform="translate(-171.12356 -149.14296)" fill="#e6e6e6"/><path d="M242.74357,453.15232H205.88719a4.40547,4.40547,0,0,1-4.4005-4.4005V438.67223a4.40546,4.40546,0,0,1,4.4005-4.4005H250.1235a4.40547,4.40547,0,0,1,4.4005,4.4005v2.69967A11.79378,11.79378,0,0,1,242.74357,453.15232Z" transform="translate(-171.12356 -149.14296)" fill="#fff"/><path d="M216.49667,441.87488h-9.097a2.23135,2.23135,0,1,1,0-4.46269h9.097a2.23135,2.23135,0,1,1,0,4.46269Z" transform="translate(-171.12356 -149.14296)" fill="#f2f2f2"/><path d="M247.39219,448.91219H207.39966a2.23135,2.23135,0,1,1,0-4.46269h39.99253a2.23135,2.23135,0,1,1,0,4.46269Z" transform="translate(-171.12356 -149.14296)" fill="#f2f2f2"/><path d="M288.51423,544.36426H278.099a3.75037,3.75037,0,0,0-3.75037,3.75037v0a3.75037,3.75037,0,0,1-3.75037,3.75037H235.87512a3.75037,3.75037,0,0,1-3.75037-3.75037l-.68657-3.80187.04463.05149-.04463-.05149-6.2941-8.02425a2.1845,2.1845,0,0,0-1.749-.84963H211.59124a2.22543,2.22543,0,0,0-2.22277,2.22276l-.24372,6.65112h-4.46246a7.1371,7.1371,0,0,0-7.1371,7.1371v46.48379a6.33359,6.33359,0,0,0,6.33359,6.33359h84.65545a6.33967,6.33967,0,0,0,6.33186-6.33359V550.69612A6.33186,6.33186,0,0,0,288.51423,544.36426Z" transform="translate(-171.12356 -149.14296)" fill="#f2f2f2"/><path d="M231.44161,544.14113H209.36847V537.49a2.22542,2.22542,0,0,1,2.22277-2.22276h11.80381a2.1845,2.1845,0,0,1,1.749.84963Z" transform="translate(-171.12356 -149.14296)" fill="#e6e6e6"/><path d="M242.74357,599.15232H205.88719a4.40547,4.40547,0,0,1-4.4005-4.4005V584.67223a4.40546,4.40546,0,0,1,4.4005-4.4005H250.1235a4.40547,4.40547,0,0,1,4.4005,4.4005v2.69967A11.79378,11.79378,0,0,1,242.74357,599.15232Z" transform="translate(-171.12356 -149.14296)" fill="#fff"/><path d="M216.49667,587.87488h-9.097a2.23134,2.23134,0,1,1,0-4.46269h9.097a2.23135,2.23135,0,1,1,0,4.46269Z" transform="translate(-171.12356 -149.14296)" fill="#f2f2f2"/><path d="M247.39219,594.91219H207.39966a2.23135,2.23135,0,1,1,0-4.46269h39.99253a2.23135,2.23135,0,1,1,0,4.46269Z" transform="translate(-171.12356 -149.14296)" fill="#f2f2f2"/><path d="M477.0138,277.26725a6.1637,6.1637,0,0,0-6.15668,6.15691v107.8909a6.1637,6.1637,0,0,0,6.15668,6.15691H629.62212a6.1637,6.1637,0,0,0,6.15668-6.15691V283.42416a6.1637,6.1637,0,0,0-6.15668-6.15691Z" transform="translate(-171.12356 -149.14296)" fill="#e6e6e6"/><path d="M574.738,392.22135H481.326a6.63382,6.63382,0,0,1-6.62634-6.62657v-97.8561a6.63382,6.63382,0,0,1,6.62634-6.62657H625.31081a6.634,6.634,0,0,1,6.62657,6.62657v47.2831A57.26429,57.26429,0,0,1,574.738,392.22135Z" transform="translate(-171.12356 -149.14296)" fill="#fff"/><path d="M538.14676,308.193H515.94888a2.11981,2.11981,0,1,1,0-4.23961h22.19788a2.11981,2.11981,0,0,1,0,4.23961Z" transform="translate(-171.12356 -149.14296)" fill="#6c63ff"/><path d="M587.90708,316.86306h-71.9582a2.11981,2.11981,0,1,1,0-4.23961h71.9582a2.11981,2.11981,0,0,1,0,4.23961Z" transform="translate(-171.12356 -149.14296)" fill="#e6e6e6"/><path d="M587.90708,326.81512h-71.9582a2.11981,2.11981,0,1,1,0-4.23961h71.9582a2.11981,2.11981,0,0,1,0,4.23961Z" transform="translate(-171.12356 -149.14296)" fill="#e6e6e6"/><path d="M587.90708,336.76719h-71.9582a2.11981,2.11981,0,1,1,0-4.23962h71.9582a2.11981,2.11981,0,0,1,0,4.23962Z" transform="translate(-171.12356 -149.14296)" fill="#e6e6e6"/><path d="M587.90708,346.71925h-71.9582a2.11981,2.11981,0,1,1,0-4.23961h71.9582a2.11981,2.11981,0,0,1,0,4.23961Z" transform="translate(-171.12356 -149.14296)" fill="#e6e6e6"/><path d="M645.60277,352.59426H615.47883a10.84718,10.84718,0,0,0-10.84719,10.84718v0a10.84718,10.84718,0,0,1-10.84718,10.84719H493.35483a10.84719,10.84719,0,0,1-10.84719-10.84719l-1.98575-10.99613.12908.14893-.12908-.14893-18.20441-23.20852a6.31822,6.31822,0,0,0-5.05872-2.45738H423.11864a6.43658,6.43658,0,0,0-6.42889,6.42889l-.70494,19.237H403.07806a20.64261,20.64261,0,0,0-20.64261,20.64261V507.53287a18.31862,18.31862,0,0,0,18.31862,18.31861h244.8487a18.3362,18.3362,0,0,0,18.31361-18.31861v-136.625A18.31361,18.31361,0,0,0,645.60277,352.59426Z" transform="translate(-171.12356 -149.14296)" fill="#e6e6e6"/><path d="M480.53183,351.94889H416.68975v-19.237a6.43658,6.43658,0,0,1,6.42889-6.42889h34.14012a6.31822,6.31822,0,0,1,5.05872,2.45738Z" transform="translate(-171.12356 -149.14296)" fill="#ccc"/><path d="M513.22044,511.0576H406.62083a12.74193,12.74193,0,0,1-12.72755-12.72755V469.17686a12.74193,12.74193,0,0,1,12.72755-12.72755H534.56538a12.74194,12.74194,0,0,1,12.72756,12.72755v7.80825A34.11113,34.11113,0,0,1,513.22044,511.0576Z" transform="translate(-171.12356 -149.14296)" fill="#fff"/><path d="M437.30661,478.43988H410.99534a6.4537,6.4537,0,0,1,0-12.90741h26.31127a6.45371,6.45371,0,1,1,0,12.90741Z" transform="translate(-171.12356 -149.14296)" fill="#6c63ff"/><path d="M526.66564,498.79388H410.99534a6.4537,6.4537,0,0,1,0-12.90741h115.6703a6.45371,6.45371,0,1,1,0,12.90741Z" transform="translate(-171.12356 -149.14296)" fill="#6c63ff"/><path d="M741.18378,183.62715h-568.293a1.807,1.807,0,0,1,0-3.61318h568.293a1.807,1.807,0,0,1,0,3.61318Z" transform="translate(-171.12356 -149.14296)" fill="#cacaca"/><ellipse cx="32.69152" cy="10.82345" rx="10.58751" ry="10.82345" fill="#3f3d56"/><ellipse cx="69.26654" cy="10.82345" rx="10.58751" ry="10.82345" fill="#3f3d56"/><ellipse cx="105.84156" cy="10.82345" rx="10.58751" ry="10.82345" fill="#3f3d56"/><path d="M719.16252,151.82566h-25.981a1.96762,1.96762,0,0,0,0,3.93446h25.981a1.96762,1.96762,0,0,0,0-3.93446Z" transform="translate(-171.12356 -149.14296)" fill="#3f3d56"/><path d="M719.16252,159.21h-25.981a1.96762,1.96762,0,0,0,0,3.93446h25.981a1.96762,1.96762,0,0,0,0-3.93446Z" transform="translate(-171.12356 -149.14296)" fill="#3f3d56"/><path d="M719.16252,166.5847h-25.981a1.96762,1.96762,0,0,0,0,3.93446h25.981a1.96762,1.96762,0,0,0,0-3.93446Z" transform="translate(-171.12356 -149.14296)" fill="#3f3d56"/><polygon points="790.503 588.634 781.122 588.634 776.659 552.448 790.505 552.449 790.503 588.634" fill="#9e616a"/><path d="M961.95705,747.56387l-28.84879-.00109v-.36484A11.22937,11.22937,0,0,1,944.337,735.96936h.00069l5.26961-3.99779,9.83191,3.9984,2.51831.00009Z" transform="translate(-171.12356 -149.14296)" fill="#2f2e41"/><polygon points="761.533 556.115 752.551 558.822 737.833 525.465 751.09 521.469 761.533 556.115" fill="#9e616a"/><path d="M935.798,714.53257l-27.62116,8.32611-.10531-.34931a11.22935,11.22935,0,0,1,7.50969-13.99179l.00067-.0002,3.89134-5.3487,10.56755.99025,2.41115-.72682Z" transform="translate(-171.12356 -149.14296)" fill="#2f2e41"/><path d="M919.7742,508.51069s-10.03652,15.32078-13.58714,25.744c-8.70144,25.54412-12.86292,19.41574-22.88359,81.5228,13.59623,45.87489,27.06036,76.11778,27.06036,76.11778s20.23451-5.691,20.23451-9.48493-12.90992-50.05965-14.80687-55.43443-5.05863-7.27176-2.21316-11.69809,26.219-43.12218,26.219-43.12218-.63232,65.95588,0,67.22055,3.673,77.21694,3.673,77.21694,20.80973,10.65156,22.071-.69993c.31616-2.84547.71511-78.11212.71511-79.3768s19.26371-119.10669,10.09494-123.84918S919.7742,508.51069,919.7742,508.51069Z" transform="translate(-171.12356 -149.14296)" fill="#2f2e41"/><path d="M877.721,519.42958a8.792,8.792,0,0,1,11.22744-7.46317L907.128,486.55582l5.82273,15.156-18.15625,21.80678a8.83973,8.83973,0,0,1-17.0734-4.089Z" transform="translate(-171.12356 -149.14296)" fill="#9e616a"/><path d="M902.79291,515.4912l-12.08753-9.166,25.37547-39.0747,20.383-78.52182,16.13752,15.02639a10.54166,10.54166,0,0,1,6.37987,5.47377c1.298,2.64985,4.05534-1.78731,3.02414.97745l-22.69987,61.29207-.03248.04267Z" transform="translate(-171.12356 -149.14296)" fill="#3f3d56"/><path d="M945.51824,385.51138l-17.19216,6.68056-7.06583,9.76059L904.131,489.8064l.68168,2.96539-1.70565,2.28645-.66988,3.4357,1.66042,2.85919-2.91628,3.582s.77094,2.854,3.63139,27.16783c1.765,15.00238,30.31907,5.76175,30.31907,5.76175l12.96343-133.23866Z" transform="translate(-171.12356 -149.14296)" fill="#3f3d56"/><polygon points="811.091 247.72 796.259 234.452 774.326 235.774 761.699 251.129 737.209 377.961 788.697 382.251 811.091 247.72" fill="#e6e6e6"/><path d="M969.21375,385.72921l13.49033,10.357,5.17458,7.55017a22.07244,22.07244,0,0,1,10.04666,25.9548l-16.38538,57.76-.38283,1.1803c-.39015,1.14387,1.47708,10.20091.548,19.9562-.242,2.54135,2.70654,5.37426,2.485,7.88282-.17329,1.9624-3.52295,3.63155-3.67083,5.43477-.1334,1.62651,1.62947,3.1743,1.5255,4.5768a23.37406,23.37406,0,0,1-2.20117,7.87267c-13.95877,5.774-40.91367,1.58543-40.91367,1.58543l24.42479-131.62075Z" transform="translate(-171.12356 -149.14296)" fill="#3f3d56"/><circle cx="783.00981" cy="205.06677" r="24.28005" fill="#9e616a"/><path d="M985.61459,355.24782c-1.4088,7.98064-7.10822,15.8755-15.06742,17.39154l-.15019-.20025a72.68667,72.68667,0,0,0,.57924-10.43347,4.04774,4.04774,0,0,0-7.83761-1.36589c.143-3.03922-1.1442-6.14279-1.97371-9.07477-.82956-2.92479-1.39448-5.69943-4.28352-6.6577-2.40992-.79376-5.03442-.24311-7.50868.32181-3.41825.77234-5.156.59356-5.46346-.27174q-1.89642.69435-3.79527,1.38631a2.33843,2.33843,0,0,1-2.69461-.82823l-.01051-.01459q-3.31452.85812-6.62906,1.702a40.38709,40.38709,0,0,1-1.02261-4.305,11.55986,11.55986,0,0,0,3.86874-6.01407,14.64623,14.64623,0,0,1-4.25493,1.63043,10.92357,10.92357,0,0,1,3.99034-8.78156c5.22747-4.1977,10.46925-6.77213,17.16269-6.436,8.09508.40762,10.51932,9.11768,17.87781,5.7209C977.69829,324.72684,987.02334,347.26715,985.61459,355.24782Z" transform="translate(-171.12356 -149.14296)" fill="#2f2e41"/><path d="M849.50107,370.05016a4.9479,4.9479,0,0,0-6.94961.74608L788.19523,438.2243a4.9479,4.9479,0,0,0,.74582,6.94964l95.3749,76.88519a4.94789,4.94789,0,0,0,6.94961-.74607L945.62179,453.885a4.9479,4.9479,0,0,0-.74582-6.94964Z" transform="translate(-171.12356 -149.14296)" fill="#ccc"/><path d="M852.66061,491.12668,794.28134,444.065a5.32528,5.32528,0,0,1-.80272-7.47977l49.30063-61.15667a5.32528,5.32528,0,0,1,7.47975-.803l89.98549,72.54059a5.32545,5.32545,0,0,1,.80286,7.47989l-23.82158,29.5503A45.96876,45.96876,0,0,1,852.66061,491.12668Z" transform="translate(-171.12356 -149.14296)" fill="#fff"/><path d="M872.12643,420.17692l-13.8729-11.18346a1.70167,1.70167,0,1,1,2.13594-2.64961l13.87291,11.18346a1.70167,1.70167,0,0,1-2.13595,2.64961Z" transform="translate(-171.12356 -149.14296)" fill="#6c63ff"/><path d="M898.85686,450.665,853.88548,414.412a1.70167,1.70167,0,1,1,2.13595-2.64961l44.97138,36.25307a1.70167,1.70167,0,0,1-2.13595,2.64961Z" transform="translate(-171.12356 -149.14296)" fill="#e6e6e6"/><path d="M893.84294,456.88472l-44.97138-36.25308a1.70167,1.70167,0,1,1,2.13595-2.64961l44.97138,36.25308a1.70167,1.70167,0,0,1-2.13595,2.64961Z" transform="translate(-171.12356 -149.14296)" fill="#e6e6e6"/><path d="M888.829,463.10441l-44.97138-36.25307a1.70167,1.70167,0,1,1,2.13594-2.64961L890.965,460.4548a1.70167,1.70167,0,0,1-2.13594,2.64961Z" transform="translate(-171.12356 -149.14296)" fill="#e6e6e6"/><path d="M883.81509,469.3241,838.84371,433.071a1.70167,1.70167,0,1,1,2.13595-2.64961L885.951,466.6745a1.70167,1.70167,0,0,1-2.13595,2.6496Z" transform="translate(-171.12356 -149.14296)" fill="#e6e6e6"/><path d="M874.022,468.12494a8.79213,8.79213,0,0,1,13.48164.00565l29.21128-11.08576-3.54758,15.84376-27.19565,8.09825A8.83972,8.83972,0,0,1,874.022,468.125Z" transform="translate(-171.12356 -149.14296)" fill="#9e616a"/><path d="M897.07749,479.44916l-4.98632-14.3269,42.77131-18.476,53.14771-39.48581,6.709,8.28183a10.63781,10.63781,0,0,1-2.02694,15.31151l-40.84681,32.29389-.05068.01754-12.67849,3.7963-2.83868.16619-3.02966,1.591-2.69124-.87584-3.72574,2.79726-4.27815,1.281Z" transform="translate(-171.12356 -149.14296)" fill="#3f3d56"/><path d="M653.97994,541.94146a26.16382,26.16382,0,1,1,26.16383-26.16382A26.16384,26.16384,0,0,1,653.97994,541.94146Z" transform="translate(-171.12356 -149.14296)" fill="#6c63ff"/><path d="M664.30349,513.19679h-7.74262v-7.74272a2.58093,2.58093,0,1,0-5.16186,0v7.74272h-7.74272a2.58089,2.58089,0,1,0,0,5.16178H651.399v7.74271a2.58093,2.58093,0,1,0,5.16186,0v-7.74271h7.74262a2.58089,2.58089,0,1,0,0-5.16178Z" transform="translate(-171.12356 -149.14296)" fill="#fff"/><path d="M292.52734,324.288a12.51039,12.51039,0,1,1,12.51039-12.51038A12.51039,12.51039,0,0,1,292.52734,324.288Z" transform="translate(-171.12356 -149.14296)" fill="#e6e6e6"/><path d="M297.46361,310.54359H287.591a1.23407,1.23407,0,0,0,0,2.46814h9.87259a1.23407,1.23407,0,1,0,0-2.46814Z" transform="translate(-171.12356 -149.14296)" fill="#fff"/><path d="M292.52734,468.288a12.51039,12.51039,0,1,1,12.51039-12.51038A12.51039,12.51039,0,0,1,292.52734,468.288Z" transform="translate(-171.12356 -149.14296)" fill="#e6e6e6"/><path d="M297.46361,454.54359H287.591a1.23407,1.23407,0,0,0,0,2.46814h9.87259a1.23407,1.23407,0,1,0,0-2.46814Z" transform="translate(-171.12356 -149.14296)" fill="#fff"/><path d="M292.52734,612.288a12.51038,12.51038,0,1,1,12.51039-12.51038A12.51039,12.51039,0,0,1,292.52734,612.288Z" transform="translate(-171.12356 -149.14296)" fill="#e6e6e6"/><path d="M297.46361,598.54359H287.591a1.23407,1.23407,0,0,0,0,2.46814h9.87259a1.23407,1.23407,0,1,0,0-2.46814Z" transform="translate(-171.12356 -149.14296)" fill="#fff"/></svg>