<svg xmlns="http://www.w3.org/2000/svg" data-name="Layer 1" width="622.10285" height="617.80194" viewBox="0 0 622.10285 617.80194" xmlns:xlink="http://www.w3.org/1999/xlink"><path d="M884.38856,460.901v291a7.00762,7.00762,0,0,1-7,7h-556a6.96976,6.96976,0,0,1-5-2.11V460.901Z" transform="translate(-288.94858 -141.09903)" fill="#e6e6e6"/><path d="M700.88856,164.891q-.83989-.51-1.67993-.99H640.76869c-.42.66-.82007,1.33-1.21,2h63.01C702.00868,165.56094,701.44862,165.23093,700.88856,164.891Zm-386.5,197.47v14.9c.25.02.51.02.76.03l-.5,28.64-.26-.14v2.82l.21009.11005-.21009,12.01v41.4h2v-106.52Q315.54866,358.851,314.38856,362.36093Zm386.5-197.47q-.83989-.51-1.67993-.99H640.76869c-.42.66-.82007,1.33-1.21,2h63.01C702.00868,165.56094,701.44862,165.23093,700.88856,164.891Zm176.5-.99h-556a7.00778,7.00778,0,0,0-7,7v581a7.01521,7.01521,0,0,0,7,7h556a7.00762,7.00762,0,0,0,7-7v-581A7.00762,7.00762,0,0,0,877.38856,163.901Zm5,588a5.00181,5.00181,0,0,1-5,5h-556a5.00189,5.00189,0,0,1-5-5v-581a5.00832,5.00832,0,0,1,5-5h556a5.00824,5.00824,0,0,1,5,5Z" transform="translate(-288.94858 -141.09903)" fill="#3f3d56"/><path d="M761.21008,174.819a33.27105,33.27105,0,0,1-8.88,22.67c-.44.47-.9.93-1.36,1.37a502.08883,502.08883,0,0,0-54.14-36.35c.23-.59.48-1.18.75-1.75a33.21885,33.21885,0,0,1,15.61-15.92h.01a392.93623,392.93623,0,0,1,45.22,16.62A33.30429,33.30429,0,0,1,761.21008,174.819Z" transform="translate(-288.94858 -141.09903)" fill="#ff6584"/><path d="M788.27553,242.72838l-.031.34888q-32.92151-2.26765-65.83524-4.543c-15.85411-1.09312-32.25864-2.33355-46.26763-9.83808-5.31833-2.84522-10.497-6.644-16.52859-6.90759-7.4813-.33335-14.009,4.89967-19.14122,10.35749-30.336,32.31292-39.11974,81.72037-73.15371,110.10273a1080.81846,1080.81846,0,0,1,76.64239-152.96695c5.45783-9.03179,11.93129-18.67606,22.064-21.62205,9.6675-2.81421,19.55985,1.29468,28.45989,6.56647,1.90716,1.13188,3.76776,2.318,5.56637,3.49642q20.57151,13.46628,40.46869,27.96366Q764.95179,223.467,788.27553,242.72838Z" transform="translate(-288.94858 -141.09903)" fill="#e6e6e6"/><path d="M859.25852,311.26157a519.92949,519.92949,0,0,0-81.20869-90.13971q-13.15239-11.55916-27.0799-22.26553a504.23386,504.23386,0,0,0-54.14427-36.352q-9.25666-5.37256-18.73031-10.31874c-4.90742-2.5506-10.13268-4.88415-15.79209-4.51978A21.0114,21.0114,0,0,0,651.39532,151.86c-6.95408,5.078-11.55913,13.0089-15.35018,20.5677-3.31814,6.6285-6.41143,13.38878-9.56675,20.1103-1.34119,2.86072-2.68242,5.71368-4.07013,8.55114q-7.2565,14.90831-14.854,29.65377-9.79153,19.00171-20.149,37.7165Q565.64746,307.8,541.48643,345.722q-35.5148,55.73745-75.99117,108.09476c-3.31036,4.2717-4.67483,5.264-8.0317,9.50472-.77527.99235-2.15523-.40316-1.38773-1.38771,27.99475-35.383,52.369-68.81226,76.94476-106.66056q27.79317-42.80612,52.53173-87.51158,7.94252-14.33841,15.55176-28.85525,12.31506-23.50209,23.77727-47.446,3.02349-6.30291,5.985-12.65227c6.27189-13.4353,15.40445-33.4138,33.04166-33.14246,5.18651.07754,10.0009,2.17849,14.54393,4.50427,4.62829,2.38006,9.17136,4.90741,13.70662,7.47353q2.72121,1.535,5.41908,3.11656,10.687,6.20979,21.05609,12.93912,17.30386,11.22189,33.69291,23.785,7.77975,5.96566,15.32694,12.20262a522.17353,522.17353,0,0,1,84.57331,88.6202q4.45383,5.91912,8.7217,11.97005C861.67738,311.30808,859.97956,312.28487,859.25852,311.26157Z" transform="translate(-288.94858 -141.09903)" fill="#e6e6e6"/><path d="M806.84008,186.869c-9.27,5.28-16.85,13.08-23.97,20.96q-1.545,1.71-3.07,3.43c-.85.94-2.22-.44995-1.38995-1.4,7.97-8.91,16.16-18.02,26.55-24.15C805.59008,186.089,806.22009,186.479,806.84008,186.869Z" transform="translate(-288.94858 -141.09903)" fill="#e6e6e6"/><path d="M555.086,304.473l-26.2797-9.61192-13.048-4.77235a133.43042,133.43042,0,0,0-12.88175-4.43663,20.32259,20.32259,0,0,0-11.65957.14856,26.87253,26.87253,0,0,0-9.09419,5.63744,73.80268,73.80268,0,0,0-7.45912,7.96582c-2.84078,3.414-5.6396,6.86374-8.451,10.302q-17.40463,21.28525-34.58166,42.75529-17.17662,21.4697-34.12357,43.12177-16.98836,21.705-33.74307,43.5916-2.0525,2.68117-4.10145,5.365c-.75469.98847-2.45638.014-1.691-.98848q16.87832-22.10661,33.99192-44.0323,17.15569-21.97806,34.54847-43.76967,17.39243-21.79116,35.01992-43.39341,4.39153-5.38179,8.79757-10.75165c2.47775-3.0198,4.92755-6.07218,7.64528-8.88288,4.98852-5.15925,11.221-9.7187,18.68143-9.84236,4.38633-.07273,8.63134,1.31913,12.70669,2.79348,4.39341,1.58937,8.77628,3.2085,13.16408,4.81335l26.46346,9.67913,6.61587,2.41979c1.17406.42943.66688,2.32278-.52062,1.88844Z" transform="translate(-288.94858 -141.09903)" fill="#e6e6e6"/><path d="M832.33007,203.969q-22.5,4.83-44.58,11.37c9.46-5.54,16.86-14.23,26.61-19.24a36.02686,36.02686,0,0,1,4.08-1.79Q825.49008,198.974,832.33007,203.969Z" transform="translate(-288.94858 -141.09903)" fill="#e6e6e6"/><path d="M483.11238,304.56906c2.58692-3.14893,5.3838-6.44607,9.25316-7.72508l3.61253.14248A409.767,409.767,0,0,1,386.8368,421.76056Q434.97461,363.16485,483.11238,304.56906Z" transform="translate(-288.94858 -141.09903)" fill="#e6e6e6"/><path d="M826.94484,354.14192q0,1.31062.0849,2.59944a39.37683,39.37683,0,0,0,3.68951,14.29551c.01644.03836.03574.07395.052.10964.09873.20817.20007.41629.30413.62179a38.90408,38.90408,0,0,0,2.09538,3.69785A39.57005,39.57005,0,0,0,865.646,393.74162l-.39175,22.52665-5.10844-2.68982-.91216,1.73388,5.98224,3.15-.73134,41.83749-.00814.55881,3.9498.87923-.00815-.56152-1.24359-67.43195a39.49142,39.49142,0,0,0,27.93917-12.15631c.24917-.25738.49575-.52316.73682-.78612l.02742-.03021a39.6535,39.6535,0,0,0,7.21484-11.16472c-.03838.04378-.07943.0849-.11784.12868,16.322-41.01737,6.82607-60.03223-18.78487-51.052-.13694-.06847-.2767-.13421-.41366-.20268a39.64951,39.64951,0,0,0-51.36692,15.59385c-.24115.40538-.474.819-.69856,1.23535A39.40315,39.40315,0,0,0,826.94484,354.14192Z" transform="translate(-288.94858 -141.09903)" fill="#3f3d56"/><path d="M495.04009,157.87906l-.04.48q-20.205-1.395-40.4-2.79c8.61-3.38995,17.32-6.48,26.21-9.27Q487.96508,152.02905,495.04009,157.87906Z" transform="translate(-288.94858 -141.09903)" fill="#e6e6e6"/><path d="M593.72009,250.669a1.43132,1.43132,0,0,1-2.41.16,703.94252,703.94252,0,0,0-95.4-108.93c1.01-.28,2.03-.55,3.04-.8a707.36612,707.36612,0,0,1,82.82,92.16q6.045,8.02506,11.83,16.23A1.08148,1.08148,0,0,1,593.72009,250.669Z" transform="translate(-288.94858 -141.09903)" fill="#e6e6e6"/><path d="M829.63856,608.531c0,1.97-2.28979,3.56-5.11987,3.56-2.84009,0-5.13013-1.59-5.13013-3.56,0-1.97,2.29-3.57,5.13013-3.57C827.34877,604.961,829.63856,606.56094,829.63856,608.531Z" transform="translate(-288.94858 -141.09903)" fill="#e6e6e6"/><path d="M694.8,645.07625c-.0096.10555-.024.20626-.03838.3118-9.85728,4.32666-23.34089,6.99365-38.22517,6.99365-16.25611,0-30.85737-3.18024-40.86815-8.23121-6.0439-3.04592-10.41372-6.773-12.46673-10.88859a11.86875,11.86875,0,0,1-1.32388-5.37232,10.75326,10.75326,0,0,1,.09111-1.41985,11.67346,11.67346,0,0,1,.638-2.58064,16.95387,16.95387,0,0,1,4.14438-6.12064c.40771-.39813.83943-.79624,1.29033-1.18478a45.58529,45.58529,0,0,1,13.90572-7.65079c-7.58844,3.7894-12.577,8.65329-13.70427,14.01124-.024.09594-.03838.19188-.05276.283a10.75051,10.75051,0,0,0-.19188,2.03861c0,.06716,0,.13909.0048.20625,0,0,.0048.00481,0,.00481.07677,4.27867,2.60463,8.29354,6.98405,11.78077,9.368,7.45892,27.20708,12.50029,47.67474,12.50029A105.52288,105.52288,0,0,0,694.8,645.07625Z" transform="translate(-288.94858 -141.09903)" fill="#ccc"/><path d="M588.8,583.07625c-.0096.10555-.024.20626-.03838.3118-9.85728,4.32666-23.34089,6.99365-38.22517,6.99365-16.25611,0-30.85737-3.18024-40.86815-8.23121-6.0439-3.04592-10.41372-6.773-12.46673-10.88859a11.86875,11.86875,0,0,1-1.32388-5.37232,10.75326,10.75326,0,0,1,.09111-1.41985,11.67346,11.67346,0,0,1,.638-2.58064,16.95387,16.95387,0,0,1,4.14438-6.12064c.40771-.39813.83943-.79624,1.29033-1.18478a45.58529,45.58529,0,0,1,13.90572-7.65079c-7.58844,3.7894-12.577,8.65329-13.70427,14.01124-.024.09594-.03838.19188-.05276.283a10.75051,10.75051,0,0,0-.19188,2.03861c0,.06716,0,.13909.0048.20625,0,0,.0048.00481,0,.00481.07677,4.27867,2.60463,8.29354,6.98405,11.78077,9.368,7.45892,27.20708,12.50029,47.67474,12.50029A105.52288,105.52288,0,0,0,588.8,583.07625Z" transform="translate(-288.94858 -141.09903)" fill="#ccc"/><path d="M583.22678,599.02151c-.01171.12874-.02925.25159-.04682.38034-12.02417,5.27777-28.47183,8.531-46.62806,8.531-19.82962,0-37.64061-3.87934-49.852-10.04065-7.37251-3.71548-12.70293-8.26186-15.20725-13.28218a14.47785,14.47785,0,0,1-1.6149-6.5533,13.1175,13.1175,0,0,1,.11114-1.732,14.239,14.239,0,0,1,.77822-3.14794,20.68076,20.68076,0,0,1,5.05543-7.46611c.49733-.48566,1.024-.97128,1.574-1.44522,4.20114-3.60435,9.99382-6.77568,16.96256-9.33264-9.25657,4.62241-15.34177,10.55551-16.71682,17.09127-.02925.117-.04682.23406-.06436.34524a13.11391,13.11391,0,0,0-.23406,2.48675c0,.08192,0,.16967.00586.2516,0,0,.00585.00585,0,.00585.09364,5.21925,3.17718,10.11668,8.51931,14.3705,11.42738,9.09858,33.18792,15.24817,58.15489,15.24817C558.67521,604.73226,572.22071,602.60828,583.22678,599.02151Z" transform="translate(-288.94858 -141.09903)" fill="#ccc"/><path d="M705.37038,663.77049c-.01406.15454-.03511.302-.0562.45656-14.43368,6.33538-34.17728,10.24056-55.97182,10.24056-23.80327,0-45.1834-4.65672-59.84185-12.05269-8.84988-4.46-15.24845-9.91745-18.25462-15.94379a17.37911,17.37911,0,0,1-1.9385-7.86651,15.74524,15.74524,0,0,1,.13341-2.079,17.09281,17.09281,0,0,1,.93416-3.77875,24.82505,24.82505,0,0,1,6.06849-8.96224c.597-.583,1.22914-1.16591,1.88937-1.73483,5.043-4.32662,11.99648-8.13345,20.36169-11.2028-11.11149,5.54869-18.41611,12.67073-20.06671,20.51618-.03511.14049-.0562.281-.07725.41442a15.74182,15.74182,0,0,0-.281,2.98507c0,.09834,0,.20367.007.302,0,0,.007.007,0,.007.1124,6.26513,3.81386,12.144,10.2265,17.2502,13.71729,10.92183,39.83842,18.30374,69.80851,18.30374C675.89894,670.62562,692.15881,668.076,705.37038,663.77049Z" transform="translate(-288.94858 -141.09903)" fill="#ccc"/><path d="M463.8,639.07625c-.0096.10555-.024.20626-.03838.3118-9.85728,4.32666-23.34089,6.99365-38.22517,6.99365-16.25611,0-30.85737-3.18024-40.86815-8.23121-6.0439-3.04592-10.41372-6.773-12.46673-10.88859a11.86875,11.86875,0,0,1-1.32388-5.37232,10.75326,10.75326,0,0,1,.09111-1.41985,11.67346,11.67346,0,0,1,.638-2.58064,16.95387,16.95387,0,0,1,4.14438-6.12064c.40771-.39813.83943-.79624,1.29033-1.18478a45.58529,45.58529,0,0,1,13.90572-7.65079c-7.58844,3.7894-12.577,8.65329-13.70427,14.01124-.024.09594-.03838.19188-.05276.283a10.75051,10.75051,0,0,0-.19188,2.03861c0,.06716,0,.13909.0048.20625,0,0,.0048.00481,0,.00481.07677,4.27867,2.60463,8.29354,6.98405,11.78077,9.368,7.45892,27.20708,12.50029,47.67474,12.50029A105.52288,105.52288,0,0,0,463.8,639.07625Z" transform="translate(-288.94858 -141.09903)" fill="#ccc"/><path d="M474.37038,657.77049c-.01406.15454-.03511.302-.0562.45656-14.43368,6.33538-34.17728,10.24056-55.97182,10.24056-23.80327,0-45.1834-4.65672-59.84185-12.05269-8.84988-4.46-15.24845-9.91745-18.25462-15.94379a17.37911,17.37911,0,0,1-1.9385-7.86651,15.74524,15.74524,0,0,1,.13341-2.079,17.09281,17.09281,0,0,1,.93416-3.77875,24.82505,24.82505,0,0,1,6.06849-8.96224c.597-.583,1.22914-1.16591,1.88937-1.73483,5.043-4.32662,11.99648-8.13345,20.36169-11.2028-11.11149,5.54869-18.41611,12.67073-20.06671,20.51618-.03511.14049-.0562.281-.07725.41442a15.74182,15.74182,0,0,0-.281,2.98507c0,.09834,0,.20367.007.302,0,0,.007.007,0,.007.1124,6.26513,3.81386,12.144,10.2265,17.2502,13.71729,10.92183,39.83842,18.30374,69.80851,18.30374C444.89894,664.62562,461.15881,662.076,474.37038,657.77049Z" transform="translate(-288.94858 -141.09903)" fill="#ccc"/><path d="M798.37855,558.891a40.8702,40.8702,0,0,1-3.99,1.72c-.6499.25-1.30993.48-2,.7a73.95219,73.95219,0,0,1-22.68994,3.32c-21.27,0-38.51-7.72-38.51-17.25,0-5.39,5.51-10.19,14.14-13.36-6.11,3.06-9.83,7.09-9.83,11.51,0,9.53,17.25,17.25,38.51,17.25a72.85394,72.85394,0,0,0,18.37988-2.12c.67017-.17,1.34009-.35,2-.53C795.72865,559.751,797.05873,559.341,798.37855,558.891Z" transform="translate(-288.94858 -141.09903)" fill="#ccc"/><path d="M801.98866,575.151a56.30068,56.30068,0,0,1-7.6001,5.05c-.6499.36-1.31982.72-2,1.08a95.64306,95.64306,0,0,1-23.80993,8.33c-25.89,5.55-48.88.64-51.37-10.95-1.3999-6.56,4.05005-13.85,13.73-19.95-6.63989,5.31-10.11,11.19-8.96,16.57,2.48,11.6,25.48,16.51,51.37,10.96a89.3642,89.3642,0,0,0,19.03991-6.1c.67017-.29,1.34009-.59,2-.91C796.97865,577.99094,799.51869,576.631,801.98866,575.151Z" transform="translate(-288.94858 -141.09903)" fill="#ccc"/><ellipse cx="237.01053" cy="508.4015" rx="5.1285" ry="3.56765" fill="#fff"/><ellipse cx="269.56535" cy="516.42871" rx="5.1285" ry="3.56765" fill="#3f3d56"/><ellipse cx="224.0778" cy="533.82101" rx="5.1285" ry="3.56765" fill="#ff6584"/><ellipse cx="351.01053" cy="397.4015" rx="5.1285" ry="3.56765" fill="#fff"/><ellipse cx="383.56535" cy="405.42871" rx="5.1285" ry="3.56765" fill="#3f3d56"/><ellipse cx="338.0778" cy="422.82101" rx="5.1285" ry="3.56765" fill="#ff6584"/><path d="M797.08851,600.501c0,1.36-1.08984,2.54-2.7,3.14a6.3488,6.3488,0,0,1-2,.41,3.01952,3.01952,0,0,1-.42993.02c-2.82995,0-5.13-1.6-5.13-3.57,0-1.97,2.30005-3.57,5.13-3.57a3.01952,3.01952,0,0,1,.42993.02,6.34908,6.34908,0,0,1,2,.41C795.99867,597.961,797.08851,599.141,797.08851,600.501Z" transform="translate(-288.94858 -141.09903)" fill="#fff"/><path d="M829.63856,608.531c0,1.97-2.28979,3.56-5.11987,3.56-2.84009,0-5.13013-1.59-5.13013-3.56,0-1.97,2.29-3.57,5.13013-3.57C827.34877,604.961,829.63856,606.56094,829.63856,608.531Z" transform="translate(-288.94858 -141.09903)" fill="#3f3d56"/><ellipse cx="490.0778" cy="484.82101" rx="5.1285" ry="3.56765" fill="#ff6584"/><ellipse cx="100.01053" cy="402.4015" rx="5.1285" ry="3.56765" fill="#fff"/><ellipse cx="132.56535" cy="410.42871" rx="5.1285" ry="3.56765" fill="#3f3d56"/><ellipse cx="87.0778" cy="427.82101" rx="5.1285" ry="3.56765" fill="#ff6584"/><path d="M489.27643,620.08257c-11.49245-.70826-22.99214-1.27861-34.49481-1.79054-7.7513-.345-15.50969-.628-23.25169-1.15146-2.717-.18374-5.43488-.40172-8.1371-.74493-.70849-.104-1.41956-.22056-2.12474-.3644.10353-.12851.2058-.25809.31094-.38533.55573-.67261,1.12739-1.33192,1.70694-1.984,3.06641-3.45039,6.31353-6.74025,9.51417-10.065,4.51233-4.68717,8.98961-9.40772,13.3583-14.22952q8.5206-9.40419,16.49456-19.28412,2.257-2.80084,4.46716-5.63915,1.54641-1.98577,3.07724-3.98361.5774-.75366,1.15141-1.50969.26734-.352.53393-.70462c.17463-.23088.93787-1.231.38351-.51689q.49144-.63524.982-1.27132.33205-.43167.66057-.86594.754-.99972,1.48284-2.01823,1.31433-1.83788,2.53946-3.7373a83.4266,83.4266,0,0,0,4.2641-7.41c4.82438-9.505,7.98284-20.01266,7.9176-30.74369a48.14765,48.14765,0,0,0-7.1798-25.51,43.35066,43.35066,0,0,0-19.06846-16.469,51.56149,51.56149,0,0,0-14.33158-3.86324,54.85374,54.85374,0,0,0-14.44117.33158c-10.96773,1.52026-21.48533,6.205-30.68473,12.25478-2.93238,1.92846-5.7353,4.03555-8.49037,6.20819a6.20885,6.20885,0,0,0-1.82022,4.39448,6.32435,6.32435,0,0,0,1.82022,4.39449,6.25329,6.25329,0,0,0,4.39454,1.82027,7.241,7.241,0,0,0,4.39449-1.82027c.12755-.10055.25662-.20145.38513-.30265q.58184-.44244,1.16987-.877,1.24049-.91629,2.50828-1.79482,2.51126-1.73933,5.13138-3.31413a81.85393,81.85393,0,0,1,9.35122-4.82276,63.63662,63.63662,0,0,1,14.48725-4.05072,49.88381,49.88381,0,0,1,11.09483-.0661,42.40359,42.40359,0,0,1,9.49367,2.57309,38.77064,38.77064,0,0,1,4.06346,2.13936q1.20885.73455,2.36,1.5588c.10737.07687.34649.25576.55137.40906q.29178.2371.57854.48026a37.04524,37.04524,0,0,1,3.91551,3.85067q.42659.48683.836.98841c.04106.05032.08122.10135.12163.15223q.79028,1.06869,1.50509,2.19034a38.7933,38.7933,0,0,1,2.57659,4.79484,42.59977,42.59977,0,0,1,2.55666,9.47013,49.80213,49.80213,0,0,1-.06287,11.06038A62.725,62.725,0,0,1,473.3247,532.187a83.29627,83.29627,0,0,1-8.05491,14.24954q-.65956.94421-1.34168,1.87252-.31908.4344-.643.8653c-.0837.11137-.36359.47764-.51582.67757-.336.42959-.66629.85822-.99427,1.29241q-.26807.35505-.53575.71054-.62.82062-1.244,1.63831-.52829.6924-1.05931,1.38269l-.01305.017q-.20841.26932-.41736.53808-1.12027,1.44057-2.2528,2.87175-8.11681,10.25761-16.84454,20.01054c-4.52476,5.06056-9.17005,10.01042-13.87093,14.90728-3.37811,3.519-6.808,6.99355-10.09317,10.60032a42.89111,42.89111,0,0,0-6.45469,8.29378c-1.74947,3.286-2.44378,7.2412-.28173,10.54334,2.06066,3.14724,5.65979,4.59442,9.2089,5.33363a101.71972,101.71972,0,0,0,13.9957,1.604c6.75117.44714,13.51443.71185,20.27328,1.01075,9.58018.42368,19.15922.87067,28.73353,1.41173q4.17927.23616,8.35721.49392a6.2511,6.2511,0,0,0,6.21476-6.21476A6.35889,6.35889,0,0,0,489.27643,620.08257Z" transform="translate(-288.94858 -141.09903)" fill="#ffb335"/><path d="M602.5287,497.691a196.696,196.696,0,0,0-1.91-23.38,176.48406,176.48406,0,0,0-4.20008-21.12,138.91279,138.91279,0,0,0-7.02-20.12,71.49061,71.49061,0,0,0-8.34985-14.68c-3.33008-4.38-7.15015-8.5-12.06006-11.14a23.86088,23.86088,0,0,0-6.75-2.5c-.32007-.06-.64-.11-.97-.14-.22-.03-.44995-.06-.68-.09a44.26,44.26,0,0,0-20.52991,2.85,46.17031,46.17031,0,0,0-16.97009,11.91,63.96853,63.96853,0,0,0-11,17.55,98.16912,98.16912,0,0,0-6.45008,21.81,132.83192,132.83192,0,0,0-1.95,24.22,142.26217,142.26217,0,0,0,2.45,24.27c.01.04.01.07.02.11a110.68109,110.68109,0,0,0,6.16016,21.25,81.5363,81.5363,0,0,0,10.44995,19.02,54.14031,54.14031,0,0,0,15.59,14.3,42.74247,42.74247,0,0,0,9.45007,4.07,65.722,65.722,0,0,0,8.83984,2.23,36.34943,36.34943,0,0,0,9.49.35,34.254,34.254,0,0,0,9.82007-2.63c5.37-2.33,9.64-6.4,13.14-11a55.87032,55.87032,0,0,0,8.03-15.9,102.04505,102.04505,0,0,0,4.31994-20.09q.72-5.835.97-11.71Q602.6288,502.42094,602.5287,497.691Zm-12.72,12.9c-.19006,2.83-.46008,5.66-.83008,8.49a91.42928,91.42928,0,0,1-3.82007,16.48c-.3999,1.18-.83984,2.34-1.30993,3.49a45.86405,45.86405,0,0,1-4.95008,8.80005l-.01989.03c-.20008.25-.4.49-.6.73q-.78.91508-1.62012,1.77c-.56994.57-1.15991,1.12-1.77,1.64-.1499.13-.30993.26-.47.39-.07995.06-.15991.11-.23.17a18.1521,18.1521,0,0,1-8.5,3.48,30.52057,30.52057,0,0,1-6.40991-.05,41.2606,41.2606,0,0,1-5.59009-1.32c-1.88989-.58-3.79-1.14-5.61987-1.86a38.1335,38.1335,0,0,1-5.76-3.21c-.49-.33-.97009-.68-1.45007-1.03l-.48-.39c-1-.83-1.96009-1.7-2.89-2.61s-1.82007-1.85-2.67993-2.84c-.45007-.51-.90015-1.04-1.33008-1.57-.13-.17-.27-.34-.4-.5a66.3759,66.3759,0,0,1-4.54993-6.95,85.27888,85.27888,0,0,1-4.07007-8.18,109.80954,109.80954,0,0,1-5.65991-18.42c-.23-1.03-.44006-2.06-.63013-3.1-.37988-1.97-.68994-3.95-.97-5.93a131.73856,131.73856,0,0,1-.76-26.11c.16-2.28.4-4.56.69007-6.83a98.94175,98.94175,0,0,1,4.34-18.37c.5-1.48,1.06006-2.94,1.66-4.38a61.86309,61.86309,0,0,1,6.92-12.15c.02991-.04.08-.11.13989-.18l.03-.05c.39-.49.79-.96,1.19995-1.43.74-.86,1.5-1.68,2.30005-2.48.83008-.82,1.67993-1.6,2.57007-2.35.19995-.17.59-.47.86987-.68.24-.18.48-.37.73-.54a30.12,30.12,0,0,1,13.91016-5.52,43.42923,43.42923,0,0,1,7.8999-.13,17.223,17.223,0,0,1,1.98.58,23.61168,23.61168,0,0,1,3.75,2.23,1.711,1.711,0,0,0,.14014.11c.34985.3.71.61,1.04993.92.73.67,1.43005,1.38,2.1,2.1.66.72,1.29,1.47,1.9,2.23.08.11.16.21.23.31.32995.44.64.89.95007,1.34a67.20379,67.20379,0,0,1,3.69995,6.09c1.21,2.24,2.30005,4.55,3.32007,6.9a145.72454,145.72454,0,0,1,8.41992,29.33c.52,2.79.97,5.6,1.36,8.41a172.27074,172.27074,0,0,1,1.38,29.68C589.93861,508.281,589.87868,509.441,589.80873,510.591Z" transform="translate(-288.94858 -141.09903)" fill="#ffb335"/><path d="M714.39769,619.08257c-11.49245-.70826-22.99213-1.27861-34.4948-1.79054-7.75131-.345-15.50969-.628-23.25169-1.15146-2.717-.18374-5.43488-.40172-8.1371-.74493-.70852-.104-1.41956-.22056-2.12474-.3644.10352-.12851.20579-.25809.31094-.38533.55572-.67261,1.12738-1.33192,1.70693-1.984,3.06642-3.45039,6.31354-6.74025,9.51418-10.065,4.51233-4.68717,8.9896-9.40772,13.35829-14.22952q8.52057-9.40419,16.49456-19.28412,2.257-2.80084,4.46716-5.63915,1.54641-1.98577,3.07724-3.98361.57747-.75366,1.15141-1.50969.26734-.352.53393-.70462c.17464-.23088.93788-1.231.38352-.51689q.49144-.63524.982-1.27132.33205-.43167.66057-.86594.75408-.99972,1.48283-2.01823,1.31435-1.83788,2.53947-3.7373a83.42907,83.42907,0,0,0,4.2641-7.41c4.82438-9.505,7.98284-20.01266,7.9176-30.74369a48.14783,48.14783,0,0,0-7.1798-25.51,43.35072,43.35072,0,0,0-19.06846-16.469,51.56089,51.56089,0,0,0-14.33158-3.86324,54.8538,54.8538,0,0,0-14.44118.33158c-10.96773,1.52026-21.48533,6.205-30.68472,12.25478-2.93239,1.92846-5.7353,4.03555-8.49037,6.20819a6.20882,6.20882,0,0,0-1.82023,4.39448,6.32436,6.32436,0,0,0,1.82023,4.39449,6.25335,6.25335,0,0,0,4.39453,1.82027,7.24106,7.24106,0,0,0,4.39449-1.82027c.12755-.10055.25662-.20145.38513-.30265q.5818-.44244,1.16987-.877,1.24061-.91629,2.50826-1.79482,2.51133-1.73933,5.13138-3.31413a81.8531,81.8531,0,0,1,9.35122-4.82276,63.63677,63.63677,0,0,1,14.48725-4.05072,49.88382,49.88382,0,0,1,11.09483-.0661,42.4032,42.4032,0,0,1,9.49364,2.57309,38.76667,38.76667,0,0,1,4.06346,2.13936q1.20882.73455,2.36,1.5588c.10737.07687.34649.25576.55137.40906q.29178.2371.57854.48026a37.04639,37.04639,0,0,1,3.91553,3.85067q.42651.48683.836.98841c.04107.05032.08123.10135.12164.15223q.79026,1.06869,1.50508,2.19034a38.792,38.792,0,0,1,2.57659,4.79484,42.59759,42.59759,0,0,1,2.55671,9.47018,49.80092,49.80092,0,0,1-.06287,11.06038,62.725,62.725,0,0,1-4.00464,14.32349,83.29627,83.29627,0,0,1-8.05491,14.24954q-.65964.94421-1.34168,1.87252-.31908.4344-.643.8653c-.0837.11137-.36359.47764-.51582.67757-.336.42959-.66629.85822-.99428,1.29241q-.26809.35505-.53575.71054-.62.82062-1.244,1.63831-.52817.6924-1.05931,1.38269l-.013.017q-.2084.26932-.41735.53808-1.12027,1.44059-2.2528,2.87175-8.11681,10.25762-16.84454,20.01054c-4.52477,5.06056-9.17006,10.01042-13.87093,14.90728-3.37812,3.519-6.808,6.99355-10.09317,10.60027a42.89077,42.89077,0,0,0-6.4547,8.29378c-1.74947,3.286-2.44377,7.2412-.28175,10.54334,2.06066,3.14724,5.65979,4.59442,9.2089,5.33363a101.72061,101.72061,0,0,0,13.9957,1.604c6.75117.44714,13.51442.71185,20.27328,1.01075,9.58018.42368,19.15919.87067,28.73356,1.41173q4.17925.23616,8.3572.49392a6.25109,6.25109,0,0,0,6.21476-6.21476A6.35893,6.35893,0,0,0,714.39769,619.08257Z" transform="translate(-288.94858 -141.09903)" fill="#ffb335"/><path d="M852.98866,541.791a6.2419,6.2419,0,0,1-6.21,6.21c-2.79-.17-5.57007-.33-8.36011-.49-9.56982-.54-19.1499-.99-28.73-1.41-5.1001-.23-10.21-.44-15.30005-.72-.66992-.03-1.33984-.07-2-.11-1-.05-1.99-.12-2.98-.18a101.23921,101.23921,0,0,1-13.99-1.61c-3.54992-.74-7.1499-2.18-9.21-5.33-2.15991-3.3-1.47-7.26.28-10.55a42.698,42.698,0,0,1,6.46-8.29c3.28-3.61,6.71-7.08,10.09009-10.6.5-.52,1.01-1.05,1.5-1.58q3.97485-4.14,7.84985-8.36c.67017-.73,1.34009-1.45,2-2.18q1.26014-1.395,2.52-2.79,8.7301-9.75,16.84009-20.01c.76-.95,1.51-1.91,2.26-2.87.13989-.18.28-.36.40991-.54l.02-.01c.3501-.46.69995-.93,1.06006-1.39.40991-.54.83008-1.09,1.24-1.64.17993-.23.36011-.47.54-.71q.4801-.645.99-1.29c.1499-.2.42993-.56.52-.68.21-.28.42993-.57.63989-.86005.45-.62.90015-1.24,1.34009-1.87a83.37606,83.37606,0,0,0,8.06006-14.25,63.05051,63.05051,0,0,0,4-14.33,49.87348,49.87348,0,0,0,.05981-11.06,42.63325,42.63325,0,0,0-2.55-9.47,39.41949,39.41949,0,0,0-2.57983-4.79c-.48-.75-.98-1.48-1.51-2.19l-.12012-.15c-.27-.34-.5498-.67-.82983-.99a36.54,36.54,0,0,0-3.92017-3.85c-.18994-.17-.37988-.33-.57983-.48-.2-.16-.44019-.34-.55005-.41-.77-.55-1.55-1.07-2.36011-1.56-.40991-.25-.82983-.49-1.25-.72-.91992-.51-1.85986-.99-2.80981-1.42a42.26524,42.26524,0,0,0-9.5-2.57,50.15062,50.15062,0,0,0-11.09009.06c-.28.04-.57007.09-.8501.15-.66992.1-1.33984.22-2,.37a62.48362,62.48362,0,0,0-11.63989,3.53,82.65254,82.65254,0,0,0-9.3501,4.83q-2.625,1.575-5.12988,3.31c-.8501.59-1.68,1.18-2.51,1.79-.39.29-.78.59-1.17.88-.13.1-.26.2-.38.3a7.19513,7.19513,0,0,1-4.3999,1.82,6.19018,6.19018,0,0,1-4.39014-1.82,6.27533,6.27533,0,0,1-1.81994-4.39,6.15587,6.15587,0,0,1,1.81994-4.39c2.75-2.18,5.56006-4.28,8.49-6.21,9.14014-6.01,19.59009-10.68,30.48-12.23.07007-.01.13013-.02.20008-.03.6-.09,1.20007-.18,1.79992-.25a55.08833,55.08833,0,0,1,12.64014-.08,51.46066,51.46066,0,0,1,13.84009,3.66c.16992.06.32983.13.5.2a43.37247,43.37247,0,0,1,19.05981,16.47,48.1133,48.1133,0,0,1,7.17993,25.51c.07007,10.73-3.08984,21.24-7.90991,30.75a85.14583,85.14583,0,0,1-4.27,7.41c-.80981,1.26-1.65991,2.51-2.54,3.73-.48.68-.98,1.36-1.48,2.02l-.65991.87q-.405.51-.78,1.02l-.01.01a.17584.17584,0,0,0-.04.05l.03-.03c-.03.04-.09985.12-.17993.22-.13013.18-.32007.42-.39014.52-.16992.23-.34985.47-.52978.7-.38013.5-.77,1.01-1.15015,1.51q-1.53,1.995-3.07983,3.98-2.20533,2.85-4.47022,5.64-7.96509,9.885-16.49,19.29c-.68994.76-1.37988,1.52-2.07983,2.27q-3.55518,3.885-7.19019,7.69c-.66992.7-1.32983,1.39-2,2.09-.68994.73-1.38989,1.45-2.08984,2.18-3.20007,3.32-6.45007,6.61-9.51,10.06-.58008.65-1.15015,1.31-1.71008,1.99-.11.12-.21.25-.30994.38.7.15,1.41992.26,2.11987.37,2.71009.34,5.42017.56,8.14014.74q1.6798.12,3.35986.21c.67017.04,1.33008.08,2,.11,5.96021.34,11.93018.57,17.89014.83,11.51.51,23.01,1.08,34.5,1.79A6.358,6.358,0,0,1,852.98866,541.791Z" transform="translate(-288.94858 -141.09903)" fill="#ffb335"/><path d="M416.59865,346.771c.04992-.05.1-.1.15-.16a50.14148,50.14148,0,0,1-9.17,14.19l-.02991.04c-.31006.34-.62012.67-.94006,1a50.23144,50.23144,0,0,1-35.52,15.46l1.55993,84.83.02.89.01.72-2.29-.51-2-.45-.73-.16.01-.49v-.22l.72-41.18.21009-12.01-.21009-.11005-7.38989-3.88995,1.1499-2.21,6.24,3.28.26.14.5-28.64c-.25-.01-.51-.01-.76-.03a46.69354,46.69354,0,0,1-5.92993-.58,50.33978,50.33978,0,0,1-37.26-27.32c-.12988-.26-.26-.53-.38989-.79a.9145.9145,0,0,0-.07007-.14,50.33366,50.33366,0,0,1-4.68994-18.18c-.07007-1.09-.1001-2.19-.1001-3.3a50.18728,50.18728,0,0,1,6.06006-23.94c.28-.53.58-1.06.87988-1.57a50.36527,50.36527,0,0,1,41.5-24.78c.66016-.04,1.33008-.05,2-.05a50.02907,50.02907,0,0,1,21.81006,5c.17005.09.3501.17.52.26C425.2787,270.451,437.34865,294.631,416.59865,346.771Z" transform="translate(-288.94858 -141.09903)" fill="#3f3d56"/><path d="M370.38856,355.61093q-.8399,3.24006-2,6.75-1.455,4.47006-3.40991,9.37c.03-.04.08008-.08.11-.12a38.02289,38.02289,0,0,1-2.63,5.07,38.655,38.655,0,0,1-4.58,6.09l-.03.03c-.24.26-.49.53-.74.79a39.48715,39.48715,0,0,1-27.93006,12.15l1.22,66.39.02,1.05.01.56-3.95-.88.01-.56v-.17l.73-41.67-5.99-3.15.91992-1.73,5.11011,2.69.38989-22.53a39.57312,39.57312,0,0,1-32.48-18.27,40.8017,40.8017,0,0,1-2.09-3.7c-.11-.21-.21-.42-.30994-.62a.36863.36863,0,0,0-.05-.11,39.42822,39.42822,0,0,1-3.68994-14.3c-.06006-.86-.08008-1.73-.08008-2.6a39.41324,39.41324,0,0,1,4.76-18.83c.23-.42.46-.83.69995-1.24a39.6416,39.6416,0,0,1,51.37012-15.59c.12988.07.27.13.40991.2,10.12012-3.55,17.73-2.72,22.2,2.1a13.72886,13.72886,0,0,1,2,2.76C373.83864,331.721,374.03871,341.87094,370.38856,355.61093Z" transform="translate(-288.94858 -141.09903)" fill="#3f3d56"/></svg>